<svg width="49" height="50" viewBox="0 0 49 50" fill="none" xmlns="http://www.w3.org/2000/svg">
<path d="M43.6122 40.0975L44.6708 41.2211C46.6733 43.3467 46.5261 46.706 44.3454 48.6483V48.6483C42.25 50.5146 39.05 50.3752 37.1248 48.3338L35.5346 46.6475C32.0987 48.3357 28.3249 49.2144 24.5002 49.2167C21.2764 49.2443 18.0793 48.627 15.0954 47.4006C12.1114 46.1742 9.4003 44.3634 7.12001 42.0736C4.83971 39.7838 3.03586 37.0609 1.81361 34.0636C0.591352 31.0663 -0.0248615 27.8545 0.000884754 24.6155C-0.0266388 21.3754 0.588262 18.1621 1.80972 15.1633C3.03118 12.1644 4.83475 9.43991 7.11523 7.1487C9.3957 4.8575 12.1074 3.04544 15.0923 1.81824C18.0771 0.59103 21.2753 -0.0267642 24.5002 0.000888916C29.1221 0.0121397 33.647 1.33352 37.5549 3.81314C41.4627 6.29275 44.5947 9.82995 46.591 14.0181C48.5873 18.2063 49.3668 22.8754 48.8399 27.4888C48.3129 32.1022 46.5009 36.4725 43.6122 40.0975ZM27.7899 38.3379L24.6403 34.9842C22.643 32.8575 22.7894 29.5032 24.9643 27.5585V27.5585C27.0655 25.6798 30.2817 25.8203 32.211 27.8751L36.2804 32.2093C37.5776 29.8748 38.2499 27.2422 38.2316 24.5687C38.2316 16.1118 32.1717 10.5185 24.5002 10.5185C16.8288 10.5185 10.7689 16.1519 10.7689 24.6155C10.7689 33.0791 16.8288 38.6657 24.5002 38.6657C25.6047 38.6626 26.7063 38.5528 27.7899 38.3379Z" fill="#FFE500"/>
</svg>
